<svg id="Layer_1" data-name="Layer 1" xmlns="http://www.w3.org/2000/svg" viewBox="0 0 526.8 526.8"><defs><style>.cls-1{fill:none;}.cls-1,.cls-2{stroke:#9f36f1;stroke-miterlimit:10;stroke-width:26px;}.cls-2{fill:#9f36f1;stroke-linecap:round;}</style></defs><circle class="cls-1" cx="263.4" cy="263.4" r="250.4"/><path class="cls-2" d="M867.9,520.4q-49.8,43.8-99.5,87.7-49.2-45.3-98.4-90.7a112.11,112.11,0,0,1-17.7-18.7s-12.1-16.1-17.5-33.9a81.15,81.15,0,0,1-2.8-13.2,78.91,78.91,0,0,1-.5-8.8,73.81,73.81,0,0,1,136.9-38.3,73.81,73.81,0,0,1,136.9,38.3,76.26,76.26,0,0,1-3.5,22.4C894.4,492.8,878,511,867.9,520.4Z" transform="translate(-502.7 -199.4)"/></svg>