<svg width="63" height="64" viewBox="0 0 63 64" fill="none" xmlns="http://www.w3.org/2000/svg">
<g clip-path="url(#clip0)">
<path d="M31.5 6.27939C39.9164 6.27939 40.9131 6.31631 44.2231 6.46396C47.2992 6.59932 48.9604 7.11611 50.0678 7.54678C51.532 8.11279 52.5902 8.80186 53.6854 9.89697C54.7928 11.0044 55.4695 12.0503 56.0356 13.5146C56.4662 14.622 56.983 16.2954 57.1184 19.3593C57.266 22.6815 57.3029 23.6782 57.3029 32.0823C57.3029 40.4987 57.266 41.4954 57.1184 44.8054C56.983 47.8815 56.4662 49.5427 56.0356 50.6501C55.4695 52.1144 54.7805 53.1726 53.6854 54.2677C52.5779 55.3751 51.532 56.0519 50.0678 56.6179C48.9604 57.0485 47.2869 57.5653 44.2231 57.7007C40.9008 57.8483 39.9041 57.8853 31.5 57.8853C23.0836 57.8853 22.0869 57.8483 18.777 57.7007C15.7008 57.5653 14.0397 57.0485 12.9322 56.6179C11.468 56.0519 10.4098 55.3628 9.31465 54.2677C8.20723 53.1603 7.53047 52.1144 6.96445 50.6501C6.53379 49.5427 6.01699 47.8692 5.88164 44.8054C5.73399 41.4831 5.69707 40.4864 5.69707 32.0823C5.69707 23.6659 5.73399 22.6692 5.88164 19.3593C6.01699 16.2831 6.53379 14.622 6.96445 13.5146C7.53047 12.0503 8.21953 10.9921 9.31465 9.89697C10.4221 8.78955 11.468 8.11279 12.9322 7.54678C14.0397 7.11611 15.7131 6.59932 18.777 6.46396C22.0869 6.31631 23.0836 6.27939 31.5 6.27939ZM31.5 0.606934C22.9482 0.606934 21.8777 0.643848 18.5186 0.791504C15.1717 0.93916 12.8707 1.48057 10.8773 2.25576C8.79785 3.06787 7.03828 4.13838 5.29102 5.89795C3.53145 7.64521 2.46094 9.40479 1.64883 11.472C0.873633 13.4776 0.332227 15.7663 0.18457 19.1132C0.0369141 22.4847 0 23.5552 0 32.1069C0 40.6587 0.0369141 41.7292 0.18457 45.0884C0.332227 48.4353 0.873633 50.7362 1.64883 52.7296C2.46094 54.8091 3.53145 56.5687 5.29102 58.3159C7.03828 60.0632 8.79785 61.146 10.865 61.9458C12.8707 62.721 15.1594 63.2624 18.5063 63.4101C21.8654 63.5577 22.9359 63.5946 31.4877 63.5946C40.0395 63.5946 41.11 63.5577 44.4691 63.4101C47.816 63.2624 50.117 62.721 52.1104 61.9458C54.1775 61.146 55.9371 60.0632 57.6844 58.3159C59.4316 56.5687 60.5145 54.8091 61.3143 52.7419C62.0895 50.7362 62.6309 48.4476 62.7785 45.1007C62.9262 41.7415 62.9631 40.671 62.9631 32.1192C62.9631 23.5675 62.9262 22.497 62.7785 19.1378C62.6309 15.7909 62.0895 13.4899 61.3143 11.4966C60.5391 9.40479 59.4686 7.64521 57.709 5.89795C55.9617 4.15068 54.2022 3.06787 52.135 2.26807C50.1293 1.49287 47.8406 0.951465 44.4938 0.803809C41.1223 0.643848 40.0518 0.606934 31.5 0.606934Z" fill="white"/>
<path d="M31.5 15.9263C22.5668 15.9263 15.3193 23.1737 15.3193 32.1069C15.3193 41.0401 22.5668 48.2876 31.5 48.2876C40.4332 48.2876 47.6807 41.0401 47.6807 32.1069C47.6807 23.1737 40.4332 15.9263 31.5 15.9263ZM31.5 42.6028C25.7045 42.6028 21.0041 37.9024 21.0041 32.1069C21.0041 26.3114 25.7045 21.611 31.5 21.611C37.2955 21.611 41.9959 26.3114 41.9959 32.1069C41.9959 37.9024 37.2955 42.6028 31.5 42.6028Z" fill="white"/>
<path d="M52.098 15.2868C52.098 17.3786 50.4 19.0644 48.3205 19.0644C46.2287 19.0644 44.543 17.3663 44.543 15.2868C44.543 13.195 46.241 11.5093 48.3205 11.5093C50.4 11.5093 52.098 13.2073 52.098 15.2868Z" fill="white"/>
</g>
<defs>
<clipPath id="clip0">
<rect width="63" height="63" fill="white" transform="translate(0 0.606934)"/>
</clipPath>
</defs>
</svg>
