<svg width="64" height="65" viewBox="0 0 64 65" fill="none" xmlns="http://www.w3.org/2000/svg">
<path fill-rule="evenodd" clip-rule="evenodd" d="M3.76 16.8015C1.42096 18.3162 0 20.9725 0 23.8304V56.5361C0 61.114 3.58172 64.825 8 64.825H56C60.4184 64.825 64 61.114 64 56.5361V23.8304C64 20.9725 62.5792 18.3162 60.24 16.8015L36.24 1.25992C33.646 -0.419975 30.3542 -0.419975 27.76 1.25992L3.76 16.8015ZM14.2188 26.8402C12.3807 25.5705 9.8972 26.0852 8.6718 27.9896C7.4464 29.8941 7.94308 32.4674 9.7812 33.7368L29.7812 47.5518C31.1248 48.4798 32.8752 48.4798 34.2188 47.5518L54.2188 33.7368C56.0568 32.4674 56.5536 29.8941 55.3284 27.9896C54.1028 26.0852 51.6192 25.5705 49.7812 26.8402L32 39.1221L14.2188 26.8402Z" fill="white"/>
</svg>
