<svg width="63" height="64" viewBox="0 0 63 64" fill="none" xmlns="http://www.w3.org/2000/svg">
<g clip-path="url(#clip0)">
<path d="M19.8192 57.7011C43.5869 57.7011 56.5905 38.005 56.5905 20.9298C56.5905 20.3761 56.5782 19.81 56.5536 19.2563C59.0832 17.427 61.2662 15.1611 63 12.565C60.6441 13.6132 58.1428 14.2978 55.5815 14.5953C58.2784 12.9788 60.2976 10.4393 61.265 7.44753C58.7279 8.9511 55.9534 10.0117 53.0603 10.584C51.111 8.51274 48.5336 7.14132 45.7267 6.68178C42.9198 6.22223 40.0396 6.70015 37.5316 8.04164C35.0235 9.38314 33.0272 11.5135 31.8513 14.1033C30.6755 16.6932 30.3855 19.5983 31.0263 22.3694C25.889 22.1116 20.8633 20.7771 16.275 18.4524C11.6866 16.1277 7.63794 12.8647 4.39154 8.87487C2.74155 11.7197 2.23665 15.086 2.97946 18.2896C3.72226 21.4933 5.65704 24.2939 8.39057 26.1224C6.3384 26.0572 4.33119 25.5047 2.53477 24.5104V24.6704C2.53293 27.6558 3.56501 30.5497 5.45556 32.8602C7.34612 35.1706 9.97847 36.7551 12.9052 37.3442C11.0041 37.8644 9.00895 37.9401 7.07396 37.5657C7.89982 40.1332 9.50663 42.3787 11.6701 43.989C13.8337 45.5993 16.4459 46.494 19.1424 46.5481C14.5646 50.1441 8.90971 52.0945 3.08848 52.0852C2.05613 52.0837 1.0248 52.0204 0 51.8957C5.91375 55.6897 12.793 57.7048 19.8192 57.7011Z" fill="white"/>
</g>
<defs>
<clipPath id="clip0">
<rect width="63" height="63" fill="white" transform="translate(0 0.606934)"/>
</clipPath>
</defs>
</svg>
