<?xml version="1.0" encoding="utf-8"?>
<!-- Generator: Adobe Illustrator 25.4.1, SVG Export Plug-In . SVG Version: 6.00 Build 0)  -->
<svg version="1.1" id="Layer_1" xmlns="http://www.w3.org/2000/svg" xmlns:xlink="http://www.w3.org/1999/xlink" x="0px" y="0px"
	 viewBox="0 0 1532.3 700" style="enable-background:new 0 0 1532.3 700;" xml:space="preserve">
<style type="text/css">
	.st0{fill:#8055A3;}
	.st1{fill:none;stroke:#FFFFFF;stroke-width:4;stroke-miterlimit:10;}
	.st2{fill:#FFFFFF;}
</style>
<g id="Logo_1.1">
	<polygon class="st0" points="384,271.8 365.2,276.6 337.7,283.7 317.4,288.9 317.4,288.9 289.9,296.1 289.8,296.1 269.5,301.3 
		242,308.4 242,308.4 221.7,313.6 194.2,320.7 174.3,325.8 157.9,330 157.6,330.1 154.3,317.1 149.1,296.8 149.3,296.7 166.1,292.4 
		166.1,292.4 193.6,285.3 193.6,285.3 213.5,280.2 241,273.1 261.3,267.8 261.4,267.8 288.9,260.8 309.2,255.5 336.7,248.4 
		357,243.2 375.5,238.4 378.3,249.3 	"/>
	<polygon class="st1" points="384.3,271.7 384,271.8 365.2,276.6 337.7,283.7 317.4,288.9 317.4,288.9 289.9,296.1 289.8,296.1 
		269.5,301.3 242,308.4 221.7,313.6 194.2,320.7 174.3,325.8 157.9,330 154.5,316.8 154.5,316.8 149.3,296.7 166.1,292.4 
		166.1,292.4 193.6,285.3 213.5,280.2 241,273.1 261.3,267.8 288.9,260.8 309.2,255.5 336.7,248.4 357,243.2 375.5,238.4 
		375.7,238.4 378.4,248.9 	"/>
	<polygon class="st2" points="193.6,285.3 174.3,325.8 157.9,330 157.6,330.1 154.3,317.1 154.5,316.8 154.5,316.8 166.1,292.4 
		166.1,292.4 166.1,292.4 	"/>
	<polygon class="st2" points="241,273.1 221.7,313.6 194.2,320.7 213.5,280.2 	"/>
	<polygon class="st2" points="288.9,260.8 269.5,301.3 269.5,301.3 242,308.4 261.3,267.8 261.4,267.8 	"/>
	<polygon class="st2" points="336.7,248.4 317.4,288.9 317.4,288.9 289.9,296.1 309.2,255.5 	"/>
	<polygon class="st2" points="378.4,248.9 378.3,249.3 365.2,276.6 337.7,283.7 357,243.2 375.5,238.4 375.7,238.4 	"/>
	<polygon class="st0" points="392,333.6 392,344.8 391.9,368 372.5,368 372.4,368 344,367.9 323,367.8 294.6,367.7 273.7,367.7 
		245.2,367.6 224.2,367.5 224.2,367.5 195.8,367.5 175.3,367.4 158.1,367.3 158.1,353.9 158.2,332.9 175.8,333 204.2,333.1 
		224.8,333.1 224.8,333.1 253.2,333.2 274.2,333.2 302.6,333.3 302.6,333.3 323.6,333.4 352,333.5 373,333.5 373,333.5 	"/>
	<polygon class="st1" points="392,333.6 392,344.8 391.9,368 372.5,368 372.4,368 344,367.9 323,367.8 294.6,367.7 273.7,367.7 
		245.2,367.6 224.2,367.5 224.2,367.5 195.8,367.5 175.3,367.4 158.1,367.3 158.1,353.9 158.2,332.9 175.8,333 204.2,333.1 
		224.8,333.1 224.8,333.1 253.2,333.2 274.2,333.2 302.6,333.3 302.6,333.3 323.6,333.4 352,333.5 373,333.5 373,333.5 	"/>
	<polygon class="st2" points="204.2,333.1 175.3,367.4 158.1,367.3 158.1,353.9 175.8,333 	"/>
	<polygon class="st2" points="253.2,333.2 224.2,367.5 224.2,367.5 195.8,367.5 224.8,333.1 224.8,333.1 	"/>
	<polygon class="st2" points="302.6,333.3 273.7,367.7 245.2,367.6 274.2,333.2 	"/>
	<polygon class="st2" points="352,333.5 323,367.8 294.6,367.7 323.6,333.4 	"/>
	<polygon class="st2" points="392,333.6 392,344.8 372.5,368 372.4,368 344,367.9 373,333.5 373,333.5 	"/>
	
		<rect x="210.8" y="280.3" transform="matrix(2.792501e-03 -1 1 2.792501e-03 -123.0638 670.9874)" class="st1" width="128.2" height="233.8"/>
	<polygon class="st0" points="253.2,414.7 253.1,443.9 278.5,429.4 303.8,414.9 278.6,400.2 253.3,385.5 	"/>
	<path class="st2" d="M536.6,373.5c-1.2,12.8-6,22.9-14.2,30c-8.3,7.2-19.3,10.8-33,10.8c-8.9,0.2-17.7-2.2-25.3-6.8
		c-7.4-4.7-13.3-11.4-16.9-19.4c-4.2-9.2-6.3-19.1-6.2-29.2v-11.2c-0.2-10.3,1.9-20.6,6-30c3.7-8.2,9.7-15.2,17.3-20
		c7.8-4.8,16.9-7.2,26.1-7c13.3,0,24,3.6,32.1,10.8c8.1,7.2,12.8,17.4,14.1,30.5h-20.8c-1-8.7-3.5-14.9-7.6-18.7
		c-4.1-3.8-10-5.7-17.9-5.7c-9.1,0-16.1,3.3-20.9,10c-4.9,6.6-7.4,16.4-7.5,29.2v10.7c0,13,2.3,22.9,7,29.8s11.5,10.3,20.5,10.3
		c8.2,0,14.4-1.8,18.5-5.5s6.7-9.8,7.9-18.4L536.6,373.5z"/>
	<path class="st2" d="M549.6,367.2c-0.1-8.2,1.7-16.3,5.2-23.7c3.2-6.7,8.3-12.4,14.6-16.2c6.6-3.8,14-5.8,21.6-5.6
		c12.1,0,21.8,3.9,29.4,11.6c7.5,7.8,11.6,18,12.2,30.8l0.1,4.7c0.1,8.2-1.6,16.3-5.1,23.6c-3.2,6.7-8.3,12.3-14.6,16.1
		c-6.6,3.9-14.2,5.9-21.8,5.7c-12.6,0-22.7-4.2-30.3-12.6c-7.6-8.4-11.4-19.6-11.4-33.6L549.6,367.2z M569.7,368.9
		c0,9.2,1.9,16.4,5.7,21.6c3.6,5.1,9.6,8.1,15.9,7.8c6.3,0.2,12.3-2.8,15.8-7.9c3.8-5.3,5.7-13,5.7-23.2c0-9-1.9-16.2-5.8-21.5
		c-6.5-8.7-18.8-10.5-27.5-4.1c-1.5,1.1-2.8,2.4-4,3.9C571.6,350.8,569.7,358.5,569.7,368.9z"/>
	<path class="st2" d="M703.9,404c-5.9,6.9-14.3,10.4-25.1,10.4c-9.7,0-17.1-2.8-22-8.5s-7.4-13.9-7.5-24.6v-57.9h20.1v57.7
		c0,11.4,4.7,17,14.1,17c9.7,0,16.3-3.5,19.8-10.5v-64.2h20.1v89.4h-18.9L703.9,404z"/>
	<path class="st2" d="M780.5,398.3c4.6,0.2,9-1.4,12.5-4.4c3.2-2.7,5.1-6.6,5.3-10.8h18.9c-0.2,5.6-2,11-5.2,15.6
		c-3.3,4.9-7.9,8.8-13.2,11.5c-5.6,2.8-11.8,4.3-18,4.2c-12.5,0-22.4-4-29.8-12.1s-11-19.3-11-33.6v-2.1c0-13.6,3.6-24.5,10.9-32.7
		c7.3-8.2,17.2-12.3,29.8-12.3c10.6,0,19.3,3.1,26,9.3c6.7,6.2,10.2,14.3,10.5,24.3h-18.9c-0.1-4.7-1.9-9.3-5.2-12.6
		c-3.3-3.3-7.8-5.1-12.5-5c-5.9-0.3-11.5,2.4-15,7.1s-5.3,11.8-5.4,21.4v3.2c0,9.7,1.7,17,5.2,21.7S773.8,398.2,780.5,398.3z"/>
	<path class="st2" d="M852.1,333c6.1-7.4,15.3-11.6,24.9-11.4c19.1,0,28.7,10.9,29,32.6v58.4h-20.1v-57.7c0-6.2-1.3-10.5-4-13.1
		c-2.7-2.5-6.6-3.8-11.8-3.8c-7.6-0.3-14.6,3.9-18,10.7v63.9H832v-127h20.1V333z"/>
	<path class="st0" d="M1020.4,378l16.2-85.6h24.7l-26.7,120.3h-25l-19.5-80.5l-19.6,80.5h-25l-26.7-120.3h24.7l16.2,85.4l19.8-85.4
		h21L1020.4,378z"/>
	<path class="st0" d="M1122.2,412.7c-1.2-2.5-2-5.2-2.4-8c-5.7,6.4-14,10-22.6,9.7c-8,0.3-15.7-2.4-21.8-7.6
		c-5.6-4.8-8.8-11.8-8.6-19.2c0-9.5,3.5-16.8,10.5-21.8c7-5.1,17.2-7.6,30.5-7.7h11V353c0.2-3.6-1-7.1-3.2-9.9
		c-2.2-2.5-5.5-3.7-10-3.7c-3.4-0.2-6.8,0.8-9.5,2.9c-2.3,2-3.6,4.9-3.4,7.9h-23.9c0-5.2,1.7-10.2,4.9-14.4
		c3.5-4.6,8.2-8.2,13.5-10.4c6.2-2.6,12.9-3.9,19.7-3.7c11,0,19.8,2.8,26.2,8.3c6.5,5.5,9.7,13.3,9.7,23.3v38.8
		c0,8.5,1.2,14.9,3.6,19.3v1.4L1122.2,412.7L1122.2,412.7z M1102.4,396.1c3.4,0,6.7-0.8,9.7-2.4c2.8-1.4,5.1-3.6,6.6-6.3V372h-8.9
		c-11.9,0-18.3,4.1-19.1,12.4v1.4c-0.1,2.8,1.1,5.5,3.1,7.4C1096.3,395.2,1099.3,396.3,1102.4,396.1z"/>
	<path class="st0" d="M1189.7,301.3v22h15.3v17.5h-15.3v44.6c0,3.2,0.6,5.7,1.9,7.1s3.7,2.2,7.3,2.2c2.4,0,4.7-0.2,7-0.6v18.1
		c-4.7,1.4-9.6,2.2-14.4,2.1c-16.8,0-25.3-8.5-25.6-25.4v-48.2h-13v-17.5h13v-22h23.8V301.3z"/>
	<path class="st0" d="M1255.5,395.1c3.9,0.2,7.7-1.1,10.7-3.6c2.8-2.4,4.3-6,4.3-9.7h22.4c0,5.9-1.7,11.7-5,16.6
		c-3.3,5.1-7.9,9.1-13.3,11.7c-5.8,2.8-12.2,4.2-18.7,4.2c-12.8,0-22.8-4.1-30.2-12.2c-7.4-8.1-11.1-19.3-11.1-33.6v-1.6
		c0-13.8,3.7-24.8,11-33s17.4-12.3,30.2-12.3c11.2,0,20.1,3.2,26.9,9.5c6.8,6.4,10.2,14.8,10.3,25.4h-22.4c0.1-4.2-1.5-8.3-4.3-11.4
		c-6.4-6.1-16.5-5.8-22.6,0.7c-0.3,0.3-0.6,0.7-0.9,1c-2.8,4.1-4.3,10.6-4.3,19.7v2.5c0,9.2,1.4,15.8,4.2,19.9
		C1245.5,393,1249.8,395.1,1255.5,395.1z"/>
	<path class="st0" d="M1329.9,333c5.8-7.3,14.6-11.5,23.9-11.4c19.4,0,29.2,11.3,29.5,33.8v57.3h-23.9v-56.6c0-5.1-1.1-8.9-3.2-11.4
		s-5.9-3.7-11-3.7c-7,0-12.1,2.7-15.2,8.1v63.5h-24v-127h23.9V333z"/>
</g>
</svg>
