<?xml version="1.0" encoding="utf-8"?>
<!-- Generator: Adobe Illustrator 25.4.1, SVG Export Plug-In . SVG Version: 6.00 Build 0)  -->
<svg version="1.1" id="Layer_1" xmlns="http://www.w3.org/2000/svg" xmlns:xlink="http://www.w3.org/1999/xlink" x="0px" y="0px"
	 viewBox="0 0 1532.3 925.6" style="enable-background:new 0 0 1532.3 925.6;" xml:space="preserve">
<style type="text/css">
	.st0{display:none;}
	.st1{display:inline;fill:#8055A3;}
	.st2{display:inline;fill:#292929;}
	.st3{fill:#8055A3;}
	.st4{fill:none;stroke:#FFFFFF;stroke-width:4;stroke-miterlimit:10;}
	.st5{fill:#FFFFFF;}
	.st6{fill:none;stroke:#FFFFFF;stroke-width:5;stroke-miterlimit:10;}
	.st7{fill:none;stroke:#FFFFFF;stroke-width:26;stroke-miterlimit:10;}
	.st8{fill:none;stroke:#FFFFFF;stroke-width:26;stroke-linecap:round;stroke-miterlimit:10;}
</style>
<g id="Logo_2.1" class="st0">
	<path class="st1" d="M334,782.8c-0.8,8.4-3.9,15-9.3,19.8c-5.4,4.7-12.7,7.1-21.7,7.1c-5.9,0.1-11.6-1.4-16.7-4.5
		c-4.9-3.1-8.7-7.5-11.1-12.8c-2.7-6-4.1-12.6-4.1-19.2v-7.4c-0.1-6.8,1.2-13.5,4-19.7c2.4-5.4,6.4-10,11.4-13.2
		c5.2-3.1,11.1-4.7,17.2-4.6c8.7,0,15.8,2.4,21.1,7.1s8.4,11.4,9.3,20.1h-13.7c-0.7-5.7-2.3-9.8-5-12.3s-6.6-3.8-11.7-3.8
		c-6,0-10.6,2.2-13.8,6.6c-3.2,4.4-4.8,10.8-4.9,19.2v7c0,8.6,1.5,15.1,4.6,19.6s7.5,6.8,13.5,6.8c5.4,0,9.5-1.2,12.2-3.7
		c2.7-2.4,4.4-6.5,5.2-12.1L334,782.8z"/>
	<path class="st1" d="M409.5,771c0.2,7-1.2,14-4,20.4c-2.4,5.5-6.4,10.2-11.5,13.5c-10.6,6.3-23.8,6.3-34.4,0
		c-5.1-3.2-9.2-7.9-11.6-13.4c-2.8-6.3-4.3-13.1-4.2-20.1V767c-0.1-7,1.3-14,4.1-20.5c2.4-5.6,6.5-10.3,11.6-13.6
		c10.6-6.3,23.7-6.3,34.3-0.1c5.1,3.2,9.1,7.9,11.5,13.4c2.8,6.4,4.2,13.3,4.1,20.3V771z M395.7,766.9c0-8.8-1.7-15.5-5-20.2
		s-8-7-14.1-7c-5.6-0.2-10.8,2.4-14,7c-3.3,4.7-5,11.3-5.1,19.8v4.6c0,8.7,1.7,15.4,5.1,20.2c3.2,4.6,8.5,7.3,14.1,7.1
		c6.1,0,10.8-2.3,14-7s4.9-11.4,4.9-20.3L395.7,766.9z"/>
	<path class="st1" d="M481.1,729.4v52.9c0,8.4-2.7,15.1-8.1,20c-5.4,4.9-12.6,7.4-21.5,7.4c-9.1,0-16.3-2.4-21.6-7.3
		c-5.3-4.8-8-11.6-8-20.2v-52.9h13.7v53c0,5.3,1.3,9.3,4,12.1c2.7,2.8,6.6,4.2,11.8,4.2c10.6,0,15.9-5.6,15.9-16.7v-52.6H481.1z"/>
	<path class="st1" d="M556.2,782.8c-0.8,8.4-3.9,15-9.3,19.8c-5.4,4.7-12.7,7.1-21.7,7.1c-5.9,0.1-11.6-1.4-16.7-4.5
		c-4.9-3.1-8.7-7.5-11.1-12.8c-2.7-6-4.1-12.6-4.1-19.2v-7.4c-0.1-6.8,1.2-13.5,4-19.7c2.4-5.4,6.4-10,11.4-13.2
		c5.2-3.1,11.1-4.7,17.2-4.6c8.7,0,15.8,2.4,21.1,7.1s8.4,11.4,9.3,20.1h-13.7c-0.7-5.7-2.3-9.8-5-12.3s-6.5-3.8-11.7-3.8
		c-6,0-10.6,2.2-13.8,6.6c-3.2,4.4-4.8,10.8-4.9,19.2v7c0,8.6,1.5,15.1,4.6,19.6s7.5,6.8,13.5,6.8c5.4,0,9.5-1.2,12.2-3.7
		c2.7-2.4,4.4-6.5,5.2-12.1L556.2,782.8z"/>
	<path class="st1" d="M631.3,808.6h-13.7v-35.1h-35.4v35.1h-13.8v-79.2h13.8v33h35.4v-33h13.7V808.6z"/>
	<path class="st2" d="M312.3,860.9h-4.5l-7.8-26c-0.4-1.2-0.8-2.6-1.2-4.4c-0.3-1-0.6-2.1-0.7-3.2c-0.5,2.6-1.1,5.2-1.9,7.7
		l-7.6,25.9h-4.5l-10.3-38.9h4.8l6.1,24c0.8,3,1.4,6.1,1.9,9.1c0.5-3.2,1.2-6.4,2.1-9.5l7-23.6h4.8l7.3,23.8c0.9,3,1.6,6.2,2.2,9.3
		c0.5-3.1,1.1-6.2,1.9-9.2l6.1-24h4.8L312.3,860.9z"/>
	<path class="st2" d="M396.7,860.9l-4.8-12.4h-15.6l-4.8,12.4H367l15.4-39h3.8l15.3,39H396.7z M390.5,844.5l-4.5-12
		c-0.6-1.5-1.2-3.4-1.8-5.6c-0.4,1.9-1,3.8-1.7,5.6l-4.6,12H390.5z"/>
	<path class="st2" d="M462.3,860.9h-4.5v-34.9h-12.3v-4h29.1v4h-12.3L462.3,860.9z"/>
	<path class="st2" d="M540.6,825.5c-3.8-0.2-7.6,1.4-10.1,4.3c-2.5,2.8-3.7,6.7-3.7,11.7c0,5.1,1.2,9,3.6,11.8
		c2.4,2.8,5.8,4.2,10.2,4.2c3.1-0.1,6.3-0.6,9.3-1.5v4c-3.2,1.1-6.6,1.6-10,1.5c-5.7,0-10.1-1.7-13.2-5.2c-3.1-3.5-4.6-8.4-4.6-14.8
		c-0.1-3.6,0.7-7.2,2.2-10.5c1.4-2.9,3.7-5.4,6.5-7c3.1-1.7,6.5-2.5,10-2.5c3.7-0.1,7.3,0.7,10.7,2.2l-1.9,3.9
		C546.7,826.2,543.7,825.5,540.6,825.5z"/>
	<path class="st2" d="M631.4,860.9h-4.5v-18.3h-20.5v18.3h-4.5V822h4.5v16.5h20.5V822h4.5V860.9z"/>
	<path class="st2" d="M245,723.9v15.9h-19.4v-15.9h-6v139.4h6v-15.9H245v15.9h5.3V723.9H245z M245,841.3h-19.4v-19.4H245V841.3z
		 M245,815.9h-19.4v-19.4H245V815.9z M245,790.5h-19.4v-19.4H245V790.5z M245,765h-19.4v-19.4H245V765z"/>
	<path class="st2" d="M139.4,723.9v15.9h-19.4v-15.9h-6v139.4h6v-15.9h19.4v15.9h5.3V723.9H139.4z M139.4,841.3h-19.4v-19.4h19.4
		V841.3z M139.4,815.9h-19.4v-19.4h19.4V815.9z M139.4,790.5h-19.4v-19.4h19.4V790.5z M139.4,765h-19.4v-19.4h19.4V765z"/>
	<rect x="151.9" y="727.1" class="st1" width="60.7" height="60.7"/>
	<rect x="151.9" y="799.4" class="st1" width="60.7" height="60.7"/>
</g>
<g>
	<circle class="st7" cx="766.1" cy="462.8" r="250.4"/>
	<line class="st8" x1="766.1" y1="369.7" x2="766.1" y2="586.4"/>
	<line class="st8" x1="874.5" y1="467.4" x2="657.8" y2="467.4"/>
</g>
</svg>
