<svg width="349" height="214" viewBox="0 0 349 214" fill="none" xmlns="http://www.w3.org/2000/svg">
<path d="M217.234 20.2754L208.331 25.402L195.34 32.8942L185.747 38.4161L172.756 45.9145L163.164 51.4426L150.178 58.9224L140.58 64.4505L127.594 71.9427L118.206 77.3473L110.46 81.8191L110.346 81.8809L106.923 75.5808L101.545 65.6673L101.659 65.6117L109.603 61.0348L122.594 53.5364L131.983 48.1319L131.989 48.1257L144.968 40.6458L154.567 35.1054L167.552 27.6255L177.144 22.0913H177.15L190.136 14.6052L199.734 9.071L208.427 4.06177L211.293 9.34277L217.234 20.2754Z" fill="#8055A3"/>
<path d="M217.348 20.2074L217.234 20.2754L208.331 25.402L195.34 32.8942L185.747 38.4161L172.756 45.9021V45.9145L163.164 51.4426L150.178 58.9225L140.58 64.4505L127.594 71.9428L118.206 77.3473L110.46 81.8192L106.959 75.3646L101.659 65.6117L109.603 61.0349L122.594 53.5364L131.983 48.1319L131.989 48.1257L144.968 40.6459L154.567 35.1054L167.552 27.6255L177.144 22.0913H177.15L190.136 14.6052L199.734 9.071L208.427 4.06177L208.541 4L211.329 9.12659L217.348 20.2074Z" stroke="#292929" stroke-width="5" stroke-miterlimit="10"/>
<path d="M122.594 53.5364L118.206 77.3472L110.46 81.8191L110.346 81.8809L106.923 75.5807L106.959 75.3645L109.603 61.0348L122.594 53.5364Z" fill="#292929"/>
<path d="M144.968 40.6458L140.58 64.4504L127.594 71.9427L131.983 48.1318L131.989 48.1256L144.968 40.6458Z" fill="#292929"/>
<path d="M167.552 27.6255L163.164 51.4425L150.178 58.9224L154.567 35.1054L167.552 27.6255Z" fill="#292929"/>
<path d="M190.136 14.6052L185.747 38.4161L172.756 45.9145V45.9021L177.144 22.0913H177.15L190.136 14.6052Z" fill="#292929"/>
<path d="M211.329 9.12659L211.293 9.34277L208.331 25.402L195.34 32.8942L199.734 9.071L208.427 4.06177L208.541 4L211.329 9.12659Z" fill="#292929"/>
<path d="M234.074 69.4042L224.206 72.0602L209.806 75.9267L199.171 78.7865L184.77 82.6531L174.129 85.5128L159.728 89.3732L149.087 92.233H149.081L134.681 96.1057L124.279 98.9037H124.273L115.562 101.245L113.793 94.2527L111.012 83.2707L119.951 80.868L134.351 77.0076L144.758 74.2096L159.159 70.3369L169.806 67.4833L184.207 63.6106L194.842 60.757H194.848L209.248 56.8842L219.884 54.0306L229.53 51.4426L231.005 57.2795L234.074 69.4042Z" fill="#8055A3"/>
<path d="M234.074 69.4042L224.206 72.0602L209.806 75.9267L199.171 78.7865L184.77 82.6531L174.129 85.5128L159.728 89.3732L149.087 92.233H149.081L134.681 96.1057L124.279 98.9037H124.273L115.562 101.245L113.793 94.2527L111.012 83.2707L119.951 80.868L134.351 77.0076L144.758 74.2096L159.159 70.3369L169.806 67.4833L184.207 63.6106L194.842 60.757H194.848L209.248 56.8842L219.884 54.0306L229.53 51.4426L231.005 57.2795L234.074 69.4042Z" stroke="#292929" stroke-width="5" stroke-miterlimit="10"/>
<path d="M134.351 77.0076L124.279 98.9037H124.273L115.562 101.245L113.793 94.2527L119.95 80.868L134.351 77.0076Z" fill="#292929"/>
<path d="M159.159 70.3369L149.087 92.233H149.081L134.681 96.1057L144.759 74.2097L159.159 70.3369Z" fill="#292929"/>
<path d="M184.207 63.6106L174.129 85.5129L159.729 89.3733L169.806 67.4833L184.207 63.6106Z" fill="#292929"/>
<path d="M209.248 56.884L199.17 78.7863L184.77 82.6529L194.842 60.7568H194.848L209.248 56.884Z" fill="#292929"/>
<path d="M231.005 57.2795L224.207 72.0602L209.806 75.9267L219.884 54.0306L229.53 51.4426L231.005 57.2795Z" fill="#292929"/>
<path d="M229.529 51.4619L111.014 83.2898L127.947 150.219L246.462 118.391L229.529 51.4619Z" stroke="#292929" stroke-width="5" stroke-miterlimit="10"/>
<path d="M170.058 112.881L173.925 128.138L184.818 117.063L195.717 105.988L180.957 101.8L166.197 97.6189L170.058 112.881Z" fill="#8055A3"/>
<path d="M35.3169 197.841C34.8693 202.728 33.1187 206.537 30.0652 209.267C27.0116 211.997 22.9529 213.367 17.889 213.375C14.5956 213.443 11.3514 212.543 8.53654 210.781C5.79872 209.004 3.62838 206.437 2.29557 203.4C0.764635 199.907 -0.0165289 196.114 0.00542574 192.282V188.007C-0.072455 184.08 0.68892 180.183 2.23562 176.593C3.58672 173.46 5.81119 170.811 8.62647 168.983C11.5278 167.18 14.867 166.263 18.2547 166.34C23.1587 166.34 27.1056 167.709 30.0951 170.447C33.0847 173.186 34.8253 177.056 35.3169 182.059H27.6251C27.2594 178.773 26.3302 176.395 24.8314 174.944C23.3326 173.492 21.1444 172.757 18.2367 172.757C14.8794 172.757 12.3015 174.022 10.503 176.55C8.70441 179.078 7.78315 182.784 7.73918 187.668V191.726C7.73918 196.667 8.59849 200.443 10.3171 203.054C12.0357 205.664 14.5537 206.966 17.871 206.957C20.9046 206.957 23.1847 206.255 24.7115 204.851C26.2383 203.447 27.2095 201.11 27.6251 197.841H35.3169Z" fill="#292929"/>
<path d="M40.107 195.37C40.0599 192.253 40.7188 189.167 42.0314 186.358C43.2049 183.8 45.0809 181.653 47.4271 180.182C49.8548 178.731 52.6251 178.002 55.4306 178.076C59.887 178.076 63.5021 179.554 66.2759 182.51C69.0497 185.467 70.5504 189.379 70.7783 194.246L70.8082 196.037C70.8614 199.144 70.2193 202.221 68.9317 205.03C67.7588 207.576 65.8816 209.708 63.5361 211.158C61.0931 212.637 58.2998 213.39 55.4666 213.332C50.8104 213.332 47.0814 211.732 44.2796 208.532C41.4779 205.333 40.079 201.073 40.083 195.753L40.107 195.37ZM47.541 196.056C47.541 199.556 48.2424 202.296 49.6453 204.277C50.3053 205.236 51.1872 206.01 52.2111 206.529C53.235 207.047 54.3684 207.295 55.5086 207.248C56.651 207.293 57.786 207.04 58.808 206.512C59.8299 205.983 60.7057 205.198 61.3539 204.227C62.7447 202.222 63.4402 199.278 63.4402 195.395C63.4402 191.957 62.7228 189.231 61.2879 187.217C60.6156 186.285 59.7418 185.527 58.7357 185.004C57.7297 184.481 56.6191 184.206 55.4921 184.202C54.3651 184.198 53.2526 184.464 52.2429 184.98C51.2332 185.496 50.3541 186.247 49.6753 187.174C48.2524 189.15 47.541 192.111 47.541 196.056Z" fill="#292929"/>
<path d="M97.0852 209.385C94.911 212.028 91.8195 213.35 87.8107 213.35C84.2136 213.35 81.5018 212.269 79.6753 210.107C77.8487 207.946 76.9295 204.822 76.9175 200.737V178.693H84.3335V200.639C84.3335 204.954 86.0741 207.114 89.5553 207.118C93.1524 207.118 95.5824 205.786 96.8454 203.122V178.693H104.255V212.714H97.301L97.0852 209.385Z" fill="#292929"/>
<path d="M125.376 207.248C127.062 207.309 128.708 206.713 129.987 205.58C130.571 205.07 131.046 204.44 131.381 203.731C131.717 203.022 131.905 202.248 131.935 201.46H138.925C138.843 203.585 138.175 205.641 137.001 207.39C135.769 209.253 134.087 210.754 132.121 211.744C130.058 212.815 127.777 213.366 125.466 213.35C120.85 213.35 117.189 211.808 114.483 208.724C111.777 205.64 110.424 201.394 110.424 195.988V195.197C110.424 190.021 111.765 185.876 114.447 182.763C117.129 179.65 120.792 178.088 125.436 178.075C129.361 178.075 132.558 179.255 135.028 181.615C137.498 183.974 138.795 187.062 138.919 190.88H131.935C131.916 189.078 131.222 187.354 129.999 186.068C129.394 185.445 128.672 184.956 127.877 184.632C127.082 184.308 126.231 184.156 125.376 184.184C124.307 184.129 123.241 184.345 122.272 184.813C121.303 185.282 120.461 185.988 119.819 186.871C118.516 188.662 117.854 191.382 117.834 195.03V196.266C117.834 199.972 118.482 202.722 119.777 204.518C121.072 206.313 122.938 207.223 125.376 207.248Z" fill="#292929"/>
<path d="M151.857 182.399C152.973 181.012 154.38 179.902 155.971 179.153C157.563 178.404 159.298 178.036 161.047 178.076C168.085 178.076 171.655 182.216 171.754 190.497V212.733H164.314V190.775C164.314 188.428 163.821 186.766 162.834 185.79C161.846 184.814 160.398 184.326 158.487 184.326C157.114 184.278 155.756 184.638 154.576 185.363C153.396 186.088 152.444 187.148 151.833 188.415V212.72H144.417V164.425H151.857V182.399Z" fill="#292929"/>
<path d="M214.002 199.514L219.998 166.939H229.122L219.266 212.72H210.01L202.816 182.096L195.585 212.72H186.353L176.491 166.957H185.615L191.611 199.471L198.955 166.957H206.706L214.002 199.514Z" fill="#8055A3"/>
<path d="M251.598 212.72C251.149 211.757 250.85 210.728 250.711 209.669C249.673 210.879 248.388 211.839 246.949 212.479C245.51 213.12 243.951 213.426 242.384 213.375C239.444 213.484 236.572 212.45 234.338 210.478C233.314 209.583 232.496 208.463 231.945 207.202C231.393 205.94 231.121 204.567 231.149 203.183C231.149 199.58 232.446 196.813 235.04 194.882C237.634 192.951 241.383 191.977 246.287 191.961H250.345V190.009C250.409 188.644 249.982 187.302 249.146 186.241C248.367 185.296 247.126 184.82 245.441 184.82C244.185 184.746 242.945 185.138 241.946 185.926C241.525 186.295 241.191 186.758 240.972 187.281C240.753 187.804 240.653 188.371 240.681 188.94H231.886C231.894 186.965 232.525 185.047 233.685 183.474C234.97 181.71 236.702 180.344 238.691 179.527C240.979 178.539 243.44 178.045 245.921 178.076C249.994 178.076 253.223 179.13 255.609 181.238C257.995 183.346 259.194 186.307 259.206 190.12V204.864C259.206 208.092 259.642 210.534 260.513 212.189V212.726L251.598 212.72ZM244.302 206.401C245.554 206.41 246.789 206.103 247.899 205.506C248.929 204.974 249.78 204.135 250.339 203.097V197.223H247.048C242.628 197.223 240.278 198.796 239.998 201.942L239.962 202.473C239.947 202.999 240.044 203.521 240.245 204.004C240.445 204.487 240.746 204.92 241.125 205.271C242.002 206.057 243.141 206.462 244.302 206.401Z" fill="#8055A3"/>
<path d="M276.556 170.336V178.693H282.204V185.364H276.556V202.343C276.472 203.302 276.72 204.261 277.258 205.049C277.725 205.592 278.619 205.864 279.944 205.864C280.814 205.872 281.682 205.8 282.54 205.648V212.529C280.808 213.074 279.008 213.351 277.198 213.35C271.011 213.35 267.857 210.132 267.738 203.696V185.364H262.941V178.693H267.738V170.336H276.556Z" fill="#8055A3"/>
<path d="M300.825 206.025C302.269 206.086 303.684 205.591 304.793 204.635C305.3 204.17 305.703 203.599 305.976 202.959C306.249 202.32 306.386 201.627 306.376 200.929H314.649C314.644 203.179 314.007 205.38 312.815 207.266C311.604 209.193 309.898 210.737 307.887 211.726C305.735 212.804 303.368 213.349 300.974 213.319C296.254 213.319 292.531 211.773 289.805 208.681C287.08 205.588 285.717 201.316 285.717 195.864V195.246C285.717 190 287.07 185.819 289.775 182.702C292.481 179.585 296.194 178.043 300.915 178.075C305.043 178.075 308.355 179.286 310.849 181.707C313.343 184.129 314.609 187.351 314.649 191.374H306.376C306.403 189.777 305.837 188.231 304.793 187.05C304.198 186.47 303.492 186.024 302.72 185.741C301.948 185.457 301.127 185.343 300.31 185.405C299.493 185.466 298.697 185.703 297.973 186.099C297.249 186.495 296.614 187.042 296.106 187.705C295.063 189.253 294.542 191.759 294.542 195.222V196.167C294.542 199.667 295.061 202.185 296.1 203.721C297.132 205.253 298.738 206.025 300.825 206.025Z" fill="#8055A3"/>
<path d="M328.289 182.399C329.336 181.028 330.677 179.924 332.207 179.174C333.737 178.424 335.414 178.048 337.107 178.076C344.274 178.076 347.907 182.362 348.007 190.935V212.726H339.188V191.182C339.188 189.231 338.788 187.789 337.989 186.859C337.189 185.928 335.829 185.471 333.906 185.488C331.324 185.488 329.452 186.517 328.289 188.576V212.757H319.47V164.425H328.289V182.399Z" fill="#8055A3"/>
</svg>
