<?xml version="1.0" encoding="utf-8"?>
<!-- Generator: Adobe Illustrator 25.4.1, SVG Export Plug-In . SVG Version: 6.00 Build 0)  -->
<svg version="1.1" id="Layer_1" xmlns="http://www.w3.org/2000/svg" xmlns:xlink="http://www.w3.org/1999/xlink" x="0px" y="0px"
	 viewBox="0 0 1532.3 925.6" style="enable-background:new 0 0 1532.3 925.6;" xml:space="preserve">
<style type="text/css">
	.st0{display:none;}
	.st1{display:inline;fill:#8055A3;}
	.st2{display:inline;fill:#292929;}
	.st3{fill:#8055A3;}
	.st4{fill:none;stroke:#FFFFFF;stroke-width:4;stroke-miterlimit:10;}
	.st5{fill:#FFFFFF;}
	.st6{fill:none;stroke:#FFFFFF;stroke-width:5;stroke-miterlimit:10;}
	.st7{fill:none;stroke:#FFFFFF;stroke-width:26;stroke-miterlimit:10;}
	.st8{fill:none;stroke:#FFFFFF;stroke-width:26;stroke-linecap:round;stroke-miterlimit:10;}
</style>
<g id="Logo_1">
	<g id="Logo1">
		<polygon class="st3" points="898.5,200 871.3,215.3 831.5,237.5 802.1,254 762.3,276.2 733,292.7 693.2,314.9 663.8,331.3 
			624,353.6 595.3,369.7 571.6,382.9 571.2,383.1 560.8,364.4 544.3,334.9 544.6,334.8 569,321.2 608.7,298.9 637.5,282.8 
			637.5,282.8 677.2,260.6 706.6,244.1 746.4,221.9 775.8,205.4 775.8,205.4 815.5,183.2 844.9,166.8 871.5,151.9 880.3,167.6 		"/>
		<polygon class="st6" points="898.9,199.8 898.5,200 871.3,215.3 871.3,215.3 831.5,237.5 802.1,254 762.3,276.2 762.3,276.2 
			733,292.7 693.2,314.9 693.2,314.9 663.8,331.3 624,353.6 595.3,369.7 571.6,382.9 560.9,363.8 544.6,334.8 569,321.2 
			608.7,298.9 637.5,282.8 637.5,282.8 677.2,260.6 706.6,244.1 746.4,221.9 775.8,205.4 775.8,205.4 815.5,183.2 844.9,166.8 
			871.5,151.9 871.9,151.7 880.4,166.9 		"/>
		<polygon class="st5" points="608.7,298.9 595.3,369.7 571.6,382.9 571.2,383.1 560.8,364.4 560.9,363.8 569,321.2 		"/>
		<polygon class="st5" points="677.2,260.6 663.8,331.3 624,353.6 637.5,282.8 637.5,282.8 		"/>
		<polygon class="st5" points="746.4,221.9 733,292.7 693.2,314.9 693.2,314.9 706.6,244.1 		"/>
		<polygon class="st5" points="815.5,183.2 802.1,254 762.3,276.2 762.3,276.2 775.8,205.4 775.8,205.4 		"/>
		<polygon class="st5" points="880.4,166.9 880.3,167.6 871.3,215.3 871.3,215.3 831.5,237.5 844.9,166.8 871.5,151.9 871.9,151.7 
					"/>
		<polygon class="st3" points="950.1,346.1 919.9,353.9 875.8,365.4 843.2,373.9 799.1,385.4 766.5,393.9 722.4,405.4 689.9,413.9 
			689.8,413.9 645.7,425.4 613.9,433.7 613.9,433.7 587.2,440.7 581.8,419.9 581.8,419.9 573.3,387.3 600.6,380.1 644.7,368.6 
			676.6,360.3 720.7,348.8 753.3,340.3 797.4,328.8 830,320.4 830,320.4 874.1,308.8 906.6,300.4 936.2,292.7 940.7,310 		"/>
		<polygon class="st6" points="950.1,346.1 919.9,353.9 875.8,365.4 843.2,373.9 799.1,385.4 766.5,393.9 722.4,405.4 689.9,413.9 
			689.8,413.9 645.7,425.4 613.9,433.7 613.9,433.7 587.2,440.7 581.8,419.9 581.8,419.9 573.3,387.3 600.6,380.1 644.7,368.6 
			676.6,360.3 720.7,348.8 753.3,340.3 797.4,328.8 830,320.4 830,320.4 874.1,308.8 906.6,300.4 936.2,292.7 940.7,310 		"/>
		<polygon class="st5" points="644.7,368.6 613.9,433.7 613.9,433.7 587.2,440.7 581.8,419.9 581.8,419.9 600.6,380.1 		"/>
		<polygon class="st5" points="720.7,348.8 689.9,413.9 689.8,413.9 645.7,425.4 676.6,360.3 		"/>
		<polygon class="st5" points="797.4,328.8 766.5,393.9 722.4,405.4 753.3,340.3 		"/>
		<polygon class="st5" points="874.1,308.8 843.2,373.9 799.1,385.4 830,320.4 830,320.4 		"/>
		<polygon class="st5" points="940.7,310 919.9,353.9 875.8,365.4 906.6,300.4 936.2,292.7 		"/>
		
			<rect x="593.1" y="336.7" transform="matrix(0.9677 -0.2522 0.2522 0.9677 -85.6112 211.1185)" class="st6" width="375" height="205.6"/>
		<polygon class="st3" points="754.1,475.3 765.9,520.6 799.3,487.7 832.6,454.8 787.4,442.3 742.2,429.9 		"/>
		<path class="st5" d="M341.5,727.8c-1.4,14.5-6.7,25.8-16.1,34c-9.3,8.1-21.8,12.2-37.3,12.2c-10.1,0.2-20-2.5-28.6-7.7
			c-8.4-5.3-15-12.9-19.1-21.9c-4.7-10.4-7.1-21.7-7-33v-12.7c-0.2-11.7,2.1-23.3,6.8-33.9c4.1-9.3,10.9-17.2,19.6-22.6
			c8.9-5.4,19.1-8.1,29.5-7.9c15,0,27.1,4.1,36.3,12.2c9.2,8.1,14.5,19.6,16,34.5H318c-1.1-9.8-4-16.8-8.6-21.1
			c-4.6-4.3-11.3-6.5-20.2-6.5c-10.3,0-18.2,3.8-23.7,11.3c-5.5,7.5-8.3,18.5-8.5,33v12.1c0,14.7,2.6,25.9,7.9,33.7
			c5.3,7.8,13,11.6,23.1,11.6c9.3,0,16.3-2.1,20.9-6.3s7.6-11.1,8.9-20.8H341.5z"/>
		<path class="st5" d="M356.2,720.4c-0.1-9.3,1.9-18.4,5.9-26.8c3.6-7.6,9.3-14,16.5-18.4c7.4-4.3,15.9-6.5,24.5-6.3
			c13.6,0,24.7,4.4,33.2,13.2c8.5,8.8,13.1,20.4,13.8,34.9l0.1,5.3c0.2,9.2-1.8,18.4-5.7,26.7c-3.6,7.6-9.3,13.9-16.5,18.2
			c-7.5,4.4-16,6.6-24.7,6.5c-14.3,0-25.7-4.8-34.3-14.3s-12.9-22.2-12.8-38L356.2,720.4z M378.9,722.4c0,10.4,2.1,18.5,6.4,24.4
			c4.1,5.8,10.9,9.1,18,8.8c7.1,0.3,13.9-3.1,17.9-9c4.3-6,6.4-14.7,6.4-26.2c0-10.2-2.2-18.3-6.6-24.3c-7.3-9.8-21.2-11.9-31.1-4.6
			c-1.7,1.3-3.2,2.8-4.5,4.4C381.1,701.9,378.9,710.7,378.9,722.4z"/>
		<path class="st5" d="M530.6,762.1c-6.7,7.9-16.1,11.8-28.4,11.8c-11,0-19.3-3.2-24.9-9.6c-5.6-6.4-8.4-15.7-8.4-27.8v-65.5h22.7
			v65.2c0,12.8,5.3,19.2,16,19.3c11,0,18.5-4,22.3-11.9v-72.6h22.7V772h-21.3L530.6,762.1z"/>
		<path class="st5" d="M617.3,755.7c5.2,0.2,10.2-1.6,14.1-5c3.6-3.1,5.8-7.5,6-12.2h21.4c-0.3,6.3-2.3,12.4-5.9,17.6
			c-3.8,5.5-8.9,10-14.9,12.9c-6.3,3.2-13.3,4.8-20.4,4.8c-14.1,0-25.3-4.6-33.6-13.7c-8.3-9.2-12.4-21.8-12.4-37.9v-2.3
			c0-15.4,4.1-27.7,12.3-37c8.2-9.3,19.4-13.9,33.6-13.9c12,0,21.8,3.5,29.4,10.5c7.6,7,11.5,16.2,11.9,27.5h-21.4
			c-0.1-5.4-2.2-10.5-5.9-14.3c-3.7-3.7-8.9-5.8-14.2-5.6c-6.6-0.3-13,2.7-17,8c-4,5.3-6,13.4-6.1,24.2v3.7c0,11,2,19.2,5.9,24.5
			C604.1,752.9,609.8,755.6,617.3,755.7z"/>
		<path class="st5" d="M698.3,681.9c6.9-8.4,17.3-13.1,28.1-12.8c21.6,0,32.5,12.3,32.8,36.9V772h-22.8v-65.3c0-7-1.5-11.9-4.5-14.8
			s-7.5-4.4-13.3-4.4c-8.6-0.3-16.6,4.5-20.4,12.2V772h-22.7V628.4h22.8V681.9z"/>
		<path class="st3" d="M888.6,732.7l18.4-96.8h27.9L904.7,772h-28.3l-22-91l-22.1,91H804l-30.2-136h27.9l18.4,96.6l22.5-96.6h23.7
			L888.6,732.7z"/>
		<path class="st3" d="M1003.7,772c-1.4-2.9-2.3-5.9-2.7-9.1c-6.4,7.3-15.8,11.3-25.5,11c-9,0.3-17.8-2.7-24.6-8.6
			c-6.4-5.4-9.9-13.4-9.8-21.7c0-10.7,4-18.9,11.9-24.7c7.9-5.7,19.4-8.6,34.4-8.7h12.4v-5.8c0.2-4.1-1.1-8-3.7-11.2
			c-2.4-2.8-6.2-4.2-11.3-4.2c-3.8-0.2-7.6,0.9-10.7,3.3c-2.6,2.2-4,5.5-3.9,9h-26.9c0-5.9,2-11.6,5.5-16.2
			c3.9-5.2,9.2-9.3,15.3-11.7c7-2.9,14.5-4.4,22.1-4.3c12.5,0,22.4,3.1,29.7,9.4c7.3,6.3,11,15.1,11,26.4v43.8
			c0,9.6,1.3,16.9,4,21.8v1.6L1003.7,772z M981.4,753.2c3.8,0,7.6-0.9,11-2.7c3.2-1.6,5.8-4.1,7.5-7.2v-17.5h-10.1
			c-13.5,0-20.7,4.7-21.6,14l-0.1,1.6c-0.1,3.2,1.2,6.2,3.6,8.3C974.3,752.2,977.8,753.4,981.4,753.2z"/>
		<path class="st3" d="M1080.1,646v24.8h17.3v19.8h-17.3v50.5c-0.3,2.8,0.5,5.7,2.1,8c1.4,1.6,4.2,2.4,8.2,2.4
			c2.7,0,5.3-0.2,7.9-0.6v20.4c-5.3,1.6-10.8,2.4-16.4,2.4c-18.9,0-28.6-9.6-29-28.7v-54.5h-14.7v-19.8h14.7V646H1080.1z"/>
		<path class="st3" d="M1154.5,752.1c4.4,0.2,8.8-1.3,12.2-4.1c3.1-2.8,4.9-6.8,4.8-11h25.3c0,6.7-2,13.2-5.6,18.8
			c-3.7,5.7-8.9,10.3-15.1,13.3c-6.6,3.2-13.8,4.8-21.2,4.7c-14.5,0-25.9-4.6-34.2-13.8c-8.3-9.2-12.5-21.9-12.5-38.1V720
			c0-15.6,4.1-28,12.4-37.3c8.3-9.3,19.7-13.8,34.1-13.7c12.6,0,22.8,3.6,30.4,10.8c7.6,7.2,11.5,16.8,11.6,28.7h-25.3
			c0.1-4.7-1.7-9.3-4.8-12.8c-7.2-6.9-18.7-6.5-25.5,0.7c-0.4,0.4-0.7,0.8-1.1,1.2c-3.2,4.6-4.8,12-4.8,22.3v2.8
			c0,10.4,1.6,17.9,4.8,22.4C1143.1,749.8,1148.1,752.1,1154.5,752.1z"/>
		<path class="st3" d="M1238.5,681.9c6.5-8.3,16.5-13,27-12.8c21.9,0,33.1,12.7,33.4,38.2V772h-27v-64c0-5.8-1.2-10.1-3.7-12.8
			c-2.4-2.8-6.6-4.1-12.5-4.1c-7.9,0-13.6,3.1-17.2,9.2v71.9h-27V628.4h27L1238.5,681.9z"/>
	</g>
</g>
</svg>
