<?xml version="1.0" encoding="utf-8"?>
<!-- Generator: Adobe Illustrator 25.4.1, SVG Export Plug-In . SVG Version: 6.00 Build 0)  -->
<svg version="1.1" id="Layer_1" xmlns="http://www.w3.org/2000/svg" xmlns:xlink="http://www.w3.org/1999/xlink" x="0px" y="0px"
	 viewBox="0 0 1532.3 925.6" style="enable-background:new 0 0 1532.3 925.6;" xml:space="preserve">
<style type="text/css">
	.st0{display:none;}
	.st1{display:inline;fill:#8055A3;}
	.st2{display:inline;fill:#292929;}
	.st3{fill:#8055A3;}
	.st4{fill:none;stroke:#FFFFFF;stroke-width:4;stroke-miterlimit:10;}
	.st5{fill:#FFFFFF;}
	.st6{fill:none;stroke:#FFFFFF;stroke-width:5;stroke-miterlimit:10;}
	.st7{fill:none;stroke:#FFFFFF;stroke-width:26;stroke-miterlimit:10;}
	.st8{fill:none;stroke:#FFFFFF;stroke-width:26;stroke-linecap:round;stroke-miterlimit:10;}
</style>
<g id="Logo_2" class="st0">
	<path class="st1" d="M948.7,861.8c-0.8,8.5-3.9,15-9.4,19.8c-5.4,4.7-12.7,7.1-21.7,7.1c-5.9,0.1-11.6-1.4-16.7-4.5
		c-4.9-3.1-8.7-7.5-11.1-12.8c-2.7-6-4.1-12.6-4.1-19.2v-7.4c-0.1-6.8,1.2-13.5,4-19.7c2.4-5.4,6.4-10,11.4-13.2
		c5.2-3.1,11.1-4.7,17.1-4.6c8.7,0,15.8,2.4,21.1,7.1s8.4,11.4,9.3,20.1H935c-0.7-5.7-2.3-9.8-5-12.3s-6.6-3.8-11.7-3.9
		c-6,0-10.6,2.2-13.8,6.6c-3.2,4.4-4.8,10.8-4.9,19.2v7c0,8.6,1.5,15.1,4.6,19.6c3.1,4.5,7.5,6.7,13.5,6.8c5.4,0,9.5-1.2,12.2-3.6
		s4.4-6.5,5.2-12.1L948.7,861.8z"/>
	<path class="st1" d="M1024.2,850.1c0.2,7-1.2,14-4,20.4c-2.4,5.5-6.4,10.2-11.5,13.5c-10.6,6.3-23.8,6.3-34.4,0
		c-5.1-3.2-9.1-7.9-11.6-13.4c-2.8-6.3-4.3-13.2-4.2-20.1V846c-0.1-7,1.3-14,4.1-20.4c2.4-5.6,6.5-10.3,11.6-13.6
		c10.6-6.2,23.7-6.2,34.3,0c5.1,3.2,9.1,7.9,11.5,13.4c2.8,6.4,4.2,13.3,4.1,20.3V850.1z M1010.4,845.9c0-8.8-1.7-15.5-5-20.2
		c-3.3-4.7-8-7-14.1-7c-5.6-0.2-10.8,2.4-14,7c-3.3,4.7-5,11.3-5.1,19.8v4.6c0,8.7,1.7,15.4,5.1,20.2c3.2,4.6,8.5,7.3,14.1,7.1
		c6.1,0,10.8-2.3,14-7s4.9-11.4,4.9-20.3L1010.4,845.9z"/>
	<path class="st1" d="M1095.8,808.4v52.9c0,8.4-2.7,15.1-8.1,20c-5.4,4.9-12.6,7.4-21.5,7.4c-9.1,0-16.3-2.4-21.6-7.3
		s-8-11.6-8-20.1v-52.9h13.7v53c0,5.3,1.3,9.3,4,12.1c2.7,2.8,6.6,4.2,11.8,4.2c10.6,0,15.9-5.6,15.9-16.8v-52.6H1095.8z"/>
	<path class="st1" d="M1170.9,861.8c-0.8,8.5-3.9,15-9.3,19.8s-12.7,7.1-21.7,7.1c-5.9,0.1-11.6-1.4-16.7-4.5
		c-4.9-3.1-8.7-7.5-11.1-12.8c-2.7-6-4.1-12.6-4.1-19.2v-7.4c-0.1-6.8,1.2-13.5,4-19.7c2.4-5.4,6.3-10,11.3-13.2
		c5.2-3.1,11.1-4.7,17.2-4.6c8.7,0,15.8,2.4,21.1,7.1s8.4,11.4,9.3,20.1h-13.7c-0.7-5.7-2.3-9.8-5-12.3c-2.7-2.5-6.6-3.8-11.7-3.9
		c-6,0-10.6,2.2-13.8,6.6c-3.2,4.4-4.8,10.8-4.9,19.2v7c0,8.6,1.5,15.1,4.6,19.6c3.1,4.5,7.6,6.7,13.4,6.8c5.4,0,9.5-1.2,12.2-3.6
		s4.4-6.5,5.2-12.1L1170.9,861.8z"/>
	<path class="st1" d="M1246,887.6h-13.7v-35.1h-35.4v35.1h-13.8v-79.2h13.8v33h35.4v-33h13.7L1246,887.6z"/>
	<path class="st2" d="M982.5,925.5H979l-3.4-11.9c-0.2-0.5-0.3-1.3-0.5-2.2c-0.2-1-0.4-1.7-0.4-2c-0.1,0.6-0.2,1.3-0.4,2.3
		s-0.4,1.6-0.5,2.1l-3.3,11.9h-3.6l-2.6-10l-2.6-10h3.3l2.9,11.6c0.4,1.9,0.8,3.5,1,5c0.1-0.8,0.2-1.6,0.5-2.6s0.4-1.7,0.5-2.3
		l3.3-11.7h3.3l3.3,11.7c0.4,1.6,0.8,3.2,1,4.9c0.2-1.7,0.5-3.4,1-5l2.8-11.6h3.3L982.5,925.5z"/>
	<path class="st2" d="M1025.3,925.5l-2-5.6h-7.6l-2,5.6h-3.5l7.5-20.1h3.5l7.5,20.1L1025.3,925.5z M1022.5,917.1l-1.9-5.4
		c-0.1-0.4-0.3-0.9-0.6-1.7c-0.2-0.8-0.4-1.4-0.5-1.7c-0.3,1.2-0.6,2.5-1.1,3.7l-1.8,5.2L1022.5,917.1z"/>
	<path class="st2" d="M1060.8,925.5h-3.3v-17.2h-5.9v-2.8h15v2.8h-5.9L1060.8,925.5z"/>
	<path class="st2" d="M1100.6,908c-1.7-0.1-3.4,0.7-4.4,2c-2.1,3.4-2.1,7.7-0.1,11.1c1.1,1.3,2.8,2,4.5,1.9c0.8,0,1.7-0.1,2.5-0.2
		c0.8-0.2,1.6-0.4,2.5-0.7v2.8c-1.7,0.6-3.5,0.9-5.3,0.9c-2.5,0.2-5-0.8-6.7-2.7c-1.6-1.8-2.3-4.3-2.3-7.6c0-1.9,0.3-3.8,1.1-5.5
		c0.7-1.5,1.9-2.7,3.3-3.6c1.6-0.9,3.3-1.3,5.1-1.2c2,0,3.9,0.4,5.7,1.3l-1.2,2.7c-0.7-0.3-1.4-0.6-2.1-0.8
		C1102.2,908.1,1101.4,908,1100.6,908z"/>
	<path class="st2" d="M1148,925.5h-3.3v-9h-9.2v9h-3.2v-20h3.3v8.2h9.2v-8.2h3.3L1148,925.5z"/>
	<path class="st2" d="M1130,643.2v15.9h-19.4v-15.9h-6v139.4h6v-15.9h19.4v15.9h5.3V643.2H1130z M1130,760.6h-19.4v-19.4h19.4V760.6
		z M1130,735.2h-19.4v-19.4h19.4V735.2z M1130,709.8h-19.4v-19.4h19.4V709.8z M1130,684.3h-19.4v-19.4h19.4V684.3z"/>
	<path class="st2" d="M1024.5,643.2v15.9h-19.4v-15.9h-6v139.4h6v-15.9h19.4v15.9h5.3V643.2H1024.5z M1024.5,760.6h-19.4v-19.4h19.4
		V760.6z M1024.5,735.2h-19.4v-19.4h19.4V735.2z M1024.5,709.8h-19.4v-19.4h19.4V709.8z M1024.5,684.3h-19.4v-19.4h19.4V684.3z"/>
	<rect x="1036.9" y="646.4" class="st1" width="60.6" height="60.7"/>
	<rect x="1036.9" y="718.7" class="st1" width="60.6" height="60.7"/>
</g>
<g>
	<circle class="st7" cx="766.1" cy="462.8" r="250.4"/>
	<circle class="st5" cx="766.1" cy="362.9" r="28.5"/>
	<circle class="st5" cx="766.1" cy="462.8" r="28.5"/>
	<circle class="st5" cx="766.1" cy="562.7" r="28.5"/>
</g>
</svg>
