<svg width="224" height="219" viewBox="0 0 224 219" fill="none" xmlns="http://www.w3.org/2000/svg">
<path d="M176.442 27.5345L163.2 34.9894L143.823 45.8064L129.51 53.846L110.133 64.663L95.8685 72.7027L76.4919 83.5197L62.1785 91.5106L42.8019 102.376L28.8293 110.221L17.291 116.653L17.0963 116.75L12.033 107.639L4 93.2647L4.14605 93.216L16.0252 86.5893L35.3531 75.7236L49.3744 67.8789L68.7023 57.0619L83.0157 49.0223L102.392 38.2053L116.706 30.1656L136.034 19.3486L150.347 11.3577L163.297 4.09766L167.581 11.7475L176.442 27.5345Z" fill="#8055A3"/>
<path d="M176.637 27.4368L176.442 27.5342L163.2 34.9892L143.823 45.8062L129.51 53.8458L110.133 64.6628L95.8685 72.7025L76.4919 83.5194L62.1785 91.5104L42.8019 102.376L28.8293 110.221L17.2909 116.653L12.0817 107.346L4.146 93.2157L16.0251 86.5891L35.3531 75.7234L49.3744 67.8787L68.7023 57.0617L83.0157 49.022L102.392 38.2051L116.706 30.1654L136.034 19.3484L150.347 11.3575L163.297 4.09745L163.492 4L167.63 11.4062L176.637 27.4368Z" stroke="white" stroke-width="5" stroke-miterlimit="10"/>
<path d="M35.3531 75.7236L28.8293 110.221L17.2909 116.653L17.0962 116.75L12.033 107.639L12.0817 107.346L16.0251 86.5893L35.3531 75.7236Z" fill="white"/>
<path d="M68.7025 57.0615L62.1786 91.5102L42.802 102.376L49.3745 67.8785L68.7025 57.0615Z" fill="white"/>
<path d="M102.392 38.2051L95.8685 72.7025L76.4919 83.5195L83.0157 49.0221L102.392 38.2051Z" fill="white"/>
<path d="M136.034 19.3486L129.51 53.846L110.133 64.663L116.706 30.1656L136.034 19.3486Z" fill="white"/>
<path d="M167.63 11.4062L167.581 11.7473L163.2 34.9892L143.823 45.8062L150.347 11.3575L163.297 4.09745L163.492 4L167.63 11.4062Z" fill="white"/>
<path d="M201.564 98.7214L186.861 102.522L165.391 108.125L149.519 112.267L128.049 117.87L112.178 122.012L90.708 127.615L74.8854 131.757H74.8367L53.3666 137.36L37.8848 141.405L24.8859 144.815L22.2569 134.681L18.1187 118.796L31.4096 115.288L52.8797 109.685L68.4102 105.64L89.8803 100.037L105.752 95.8953L127.222 90.2919L143.093 86.199L164.563 80.5469L180.386 76.454L194.796 72.7021L196.987 81.1316L201.564 98.7214Z" fill="#8055A3"/>
<path d="M201.564 98.7214L186.861 102.522L165.391 108.125L149.519 112.267L128.049 117.87L112.178 122.012L90.708 127.615L74.8854 131.757H74.8367L53.3666 137.36L37.8848 141.405L24.8859 144.815L22.2569 134.681L18.1187 118.796L31.4096 115.288L52.8797 109.685L68.4102 105.64L89.8803 100.037L105.752 95.8953L127.222 90.2919L143.093 86.199L164.563 80.5469L180.386 76.454L194.796 72.7021L196.987 81.1316L201.564 98.7214Z" stroke="white" stroke-width="5" stroke-miterlimit="10"/>
<path d="M52.8797 109.685L37.8847 141.405L24.8858 144.815L22.2568 134.681L31.4096 115.288L52.8797 109.685Z" fill="white"/>
<path d="M89.8804 100.037L74.8855 131.757H74.8368L53.3667 137.361L68.4103 105.641L89.8804 100.037Z" fill="white"/>
<path d="M127.222 90.292L112.178 122.012L90.708 127.615L105.752 95.8954L127.222 90.292Z" fill="white"/>
<path d="M164.563 80.5469L149.519 112.267L128.049 117.87L143.093 86.199L164.563 80.5469Z" fill="white"/>
<path d="M196.987 81.1316L186.861 102.522L165.391 108.125L180.386 76.454L194.796 72.7021L196.987 81.1316Z" fill="white"/>
<path d="M194.765 72.7453L18.093 118.827L43.3373 215.77L220.009 169.688L194.765 72.7453Z" stroke="white" stroke-width="5" stroke-miterlimit="10"/>
<path d="M106.141 161.675L111.886 183.747L128.147 167.717L144.359 151.686L122.353 145.596L100.348 139.554L106.141 161.675Z" fill="#8055A3"/>
</svg>
