<svg width="520" height="308" viewBox="0 0 520 308" fill="none" xmlns="http://www.w3.org/2000/svg">
<path d="M324.434 27.45L311.192 34.9049L291.815 45.7219L277.502 53.7616L258.125 64.5786L243.861 72.6182L224.484 83.4352L210.171 91.4261L190.794 102.292L176.822 110.137L165.283 116.568L165.088 116.666L160.025 107.554L151.992 93.1802L152.138 93.1315L164.017 86.5049L183.345 75.6392L197.367 67.7944L216.695 56.9774L231.008 48.9378L250.385 38.1208L264.698 30.0811L284.026 19.2642L298.339 11.2732L311.289 4.01318L315.574 11.663L324.434 27.45Z" fill="#8055A3"/>
<path d="M324.63 27.3528L324.435 27.4503L311.193 34.9052L291.816 45.7222L277.502 53.7618L258.126 64.5788L243.861 72.6185L224.485 83.4355L210.171 91.4264L190.795 102.292L176.822 110.137L165.284 116.569L160.074 107.262L152.139 93.1318L164.018 86.5052L183.346 75.6394L197.367 67.7947L216.695 56.9777L231.008 48.9381L250.385 38.1211L264.698 30.0814L284.026 19.2644L298.34 11.2735L311.29 4.01346L311.485 3.91602L315.623 11.3222L324.63 27.3528Z" stroke="white" stroke-width="5" stroke-miterlimit="10"/>
<path d="M183.346 75.6392L176.822 110.137L165.283 116.568L165.089 116.666L160.025 107.554L160.074 107.262L164.018 86.5049L183.346 75.6392Z" fill="white"/>
<path d="M216.695 56.9775L210.171 91.4262L190.794 102.292L197.367 67.7945L216.695 56.9775Z" fill="white"/>
<path d="M250.385 38.1211L243.861 72.6185L224.484 83.4355L231.008 48.9381L250.385 38.1211Z" fill="white"/>
<path d="M284.026 19.2646L277.502 53.7621L258.125 64.5791L264.698 30.0816L284.026 19.2646Z" fill="white"/>
<path d="M315.623 11.3222L315.574 11.6633L311.192 34.9052L291.816 45.7222L298.339 11.2735L311.29 4.01346L311.484 3.91602L315.623 11.3222Z" fill="white"/>
<path d="M349.556 98.6379L334.853 102.438L313.383 108.042L297.512 112.183L276.042 117.787L260.17 121.929L238.7 127.532L222.878 131.674H222.829L201.359 137.277L185.877 141.321L172.878 144.732L170.249 134.597L166.111 118.713L179.402 115.204L200.872 109.601L216.402 105.557L237.873 99.9535L253.744 95.8118L275.214 90.2084L291.085 86.1155L312.555 80.4634L328.378 76.3705L342.789 72.6187L344.979 81.0481L349.556 98.6379Z" fill="#8055A3"/>
<path d="M349.556 98.6379L334.853 102.438L313.383 108.042L297.512 112.183L276.042 117.787L260.17 121.929L238.7 127.532L222.878 131.674H222.829L201.359 137.277L185.877 141.321L172.878 144.732L170.249 134.597L166.111 118.713L179.402 115.204L200.872 109.601L216.402 105.557L237.873 99.9535L253.744 95.8118L275.214 90.2084L291.085 86.1155L312.555 80.4634L328.378 76.3705L342.789 72.6187L344.979 81.0481L349.556 98.6379Z" stroke="white" stroke-width="5" stroke-miterlimit="10"/>
<path d="M200.872 109.601L185.877 141.321L172.878 144.732L170.249 134.597L179.402 115.204L200.872 109.601Z" fill="white"/>
<path d="M237.873 99.9531L222.878 131.673H222.829L201.359 137.277L216.403 105.557L237.873 99.9531Z" fill="white"/>
<path d="M275.214 90.208L260.171 121.928L238.701 127.531L253.744 95.8114L275.214 90.208Z" fill="white"/>
<path d="M312.555 80.4634L297.512 112.183L276.042 117.787L291.085 86.1155L312.555 80.4634Z" fill="white"/>
<path d="M344.98 81.0481L334.853 102.438L313.383 108.042L328.378 76.3705L342.789 72.6187L344.98 81.0481Z" fill="white"/>
<path d="M342.757 72.6614L166.085 118.743L191.33 215.686L368.001 169.604L342.757 72.6614Z" stroke="white" stroke-width="5" stroke-miterlimit="10"/>
<path d="M254.133 161.59L259.878 183.663L276.139 167.632L292.351 151.602L270.345 145.511L248.34 139.469L254.133 161.59Z" fill="#8055A3"/>
<path d="M53.2593 284.622C52.5777 291.687 49.9974 297.193 45.421 301.188C40.8933 305.135 34.8077 307.133 27.2615 307.133C22.3443 307.23 17.5245 305.915 13.3376 303.381C9.24809 300.798 6.03488 297.095 4.03879 292.71C1.7506 287.643 0.58216 282.137 0.630845 276.631V270.443C0.533475 264.742 1.65323 259.09 3.94142 253.925C5.93751 249.393 9.24808 245.544 13.4837 242.913C17.8166 240.282 22.7825 238.966 27.8457 239.064C35.1485 239.064 41.0394 241.061 45.5184 245.008C49.9974 248.955 52.5777 254.558 53.308 261.818H41.8183C41.2828 257.043 39.8709 253.632 37.6314 251.537C35.3919 249.442 32.13 248.37 27.7971 248.37C22.7825 248.37 18.9364 250.222 16.2587 253.876C13.581 257.53 12.2179 262.89 12.1205 269.955V275.851C12.1205 283.014 13.3863 288.471 15.9666 292.271C18.5469 296.072 22.2957 297.924 27.2128 297.924C31.7405 297.924 35.1485 296.9 37.388 294.854C39.6275 292.807 41.0881 289.445 41.721 284.719H53.2593V284.622Z" fill="white"/>
<path d="M60.4158 281.016C60.3671 276.485 61.3408 272.051 63.2882 267.958C65.0409 264.255 67.8159 261.136 71.3212 258.992C74.9239 256.897 79.0621 255.825 83.2491 255.923C89.8702 255.923 95.2742 258.066 99.4125 262.354C103.551 266.642 105.79 272.294 106.131 279.359L106.18 281.942C106.277 286.425 105.303 290.907 103.405 294.951C101.652 298.655 98.8769 301.724 95.3716 303.819C91.7202 305.963 87.582 307.035 83.3464 306.987C76.3845 306.987 70.8344 304.648 66.6475 300.019C62.4606 295.39 60.3671 289.202 60.4158 281.503V281.016ZM71.4673 281.991C71.4673 287.058 72.4897 291.005 74.5831 293.88C76.5792 296.706 79.8898 298.314 83.3464 298.167C86.8031 298.314 90.1136 296.657 92.061 293.782C94.1545 290.859 95.1769 286.619 95.1769 281.016C95.1769 276.046 94.1058 272.099 91.9637 269.176C88.4097 264.401 81.6424 263.378 76.8226 266.934C75.995 267.568 75.2647 268.299 74.6318 269.078C72.5384 272.002 71.4673 276.29 71.4673 281.991Z" fill="white"/>
<path d="M145.323 301.334C142.061 305.184 137.485 307.084 131.496 307.084C126.141 307.084 122.1 305.525 119.374 302.406C116.647 299.288 115.284 294.757 115.284 288.861V256.946H126.336V288.715C126.336 294.951 128.916 298.07 134.125 298.119C139.481 298.119 143.132 296.17 144.982 292.32V256.946H156.033V306.158H145.664L145.323 301.334Z" fill="white"/>
<path d="M187.533 298.216C190.064 298.313 192.499 297.436 194.397 295.78C196.15 294.269 197.221 292.125 197.318 289.835H207.737C207.591 292.905 206.617 295.877 204.865 298.411C203.015 301.091 200.532 303.283 197.611 304.696C194.543 306.256 191.135 307.035 187.679 307.035C180.814 307.035 175.361 304.794 171.321 300.36C167.28 295.877 165.284 289.738 165.284 281.893V280.772C165.284 273.269 167.28 267.275 171.272 262.744C175.264 258.213 180.717 255.971 187.63 255.971C193.472 255.971 198.243 257.677 201.944 261.087C205.644 264.498 207.542 268.981 207.737 274.487H197.318C197.27 271.856 196.247 269.371 194.446 267.519C192.645 265.716 190.113 264.693 187.533 264.79C184.32 264.644 181.204 266.106 179.256 268.688C177.309 271.271 176.335 275.218 176.287 280.48V282.283C176.287 287.643 177.26 291.638 179.159 294.22C181.106 296.852 183.881 298.167 187.533 298.216Z" fill="white"/>
<path d="M226.967 262.257C230.327 258.164 235.39 255.874 240.648 256.02C251.164 256.02 256.47 262.013 256.616 274V306.158H245.516V274.341C245.516 270.93 244.786 268.542 243.325 267.129C241.865 265.716 239.674 264.986 236.85 264.986C232.663 264.839 228.769 267.178 226.919 270.93V306.158H215.867V236.189H226.967V262.257Z" fill="white"/>
<path d="M319.615 287.009L328.573 239.843H342.156L327.453 306.158H313.675L302.965 261.818L292.205 306.158H278.427L263.725 239.892H277.308L286.266 286.96L297.22 239.892H308.758L319.615 287.009Z" fill="#8055A3"/>
<path d="M375.651 306.158C374.97 304.745 374.531 303.283 374.337 301.724C371.221 305.281 366.644 307.23 361.922 307.084C357.54 307.23 353.256 305.768 349.946 302.893C346.83 300.262 345.126 296.364 345.174 292.32C345.174 287.107 347.122 283.111 350.968 280.285C354.814 277.508 360.413 276.095 367.716 276.046H373.752V273.22C373.85 271.222 373.217 269.322 371.951 267.763C370.783 266.398 368.933 265.716 366.45 265.716C364.6 265.619 362.75 266.155 361.24 267.324C359.975 268.396 359.293 270.004 359.342 271.709H346.245C346.245 268.835 347.219 266.057 348.923 263.816C350.822 261.282 353.402 259.284 356.372 258.115C359.78 256.702 363.431 255.971 367.131 256.02C373.217 256.02 378.037 257.53 381.591 260.6C385.145 263.67 386.946 267.958 386.946 273.463V294.805C386.946 299.483 387.579 303.04 388.893 305.427V306.207L375.651 306.158ZM364.794 296.998C366.644 296.998 368.494 296.559 370.15 295.682C371.708 294.903 372.973 293.684 373.801 292.174V283.647H368.884C362.311 283.647 358.806 285.937 358.368 290.469L358.319 291.248C358.271 292.807 358.904 294.269 360.072 295.292C361.338 296.51 363.042 297.095 364.794 296.998Z" fill="#8055A3"/>
<path d="M412.847 244.765V256.848H421.269V266.496H412.847V291.102C412.7 292.467 413.09 293.88 413.869 295C414.55 295.78 415.914 296.17 417.861 296.17C419.176 296.17 420.441 296.072 421.707 295.877V305.817C419.127 306.597 416.449 306.987 413.723 306.987C404.521 306.987 399.799 302.309 399.604 293.003V266.447H392.448V256.8H399.604V244.765H412.847Z" fill="#8055A3"/>
<path d="M449.068 296.462C451.21 296.559 453.353 295.828 455.008 294.464C456.517 293.1 457.393 291.151 457.345 289.104H469.662C469.662 292.369 468.688 295.536 466.936 298.264C465.134 301.042 462.603 303.283 459.584 304.745C456.371 306.304 452.866 307.084 449.263 307.035C442.204 307.035 436.654 304.794 432.613 300.311C428.572 295.828 426.527 289.64 426.527 281.747V280.821C426.527 273.22 428.523 267.178 432.564 262.646C436.605 258.115 442.155 255.922 449.166 255.971C455.3 255.971 460.266 257.725 463.966 261.233C467.666 264.742 469.565 269.419 469.613 275.217H457.296C457.345 272.927 456.468 270.686 454.959 268.981C451.454 265.619 445.855 265.814 442.544 269.322C442.35 269.517 442.204 269.712 442.009 269.906C440.451 272.148 439.672 275.753 439.672 280.772V282.136C439.672 287.204 440.451 290.858 442.009 293.051C443.518 295.341 445.952 296.462 449.068 296.462Z" fill="#8055A3"/>
<path d="M489.964 262.257C493.128 258.213 497.997 255.923 503.108 256.02C513.77 256.02 519.223 262.208 519.369 274.633V306.158H506.224V274.974C506.224 272.148 505.64 270.053 504.423 268.737C503.255 267.373 501.21 266.74 498.337 266.74C494.491 266.74 491.716 268.25 489.964 271.222V306.256H476.819V236.189H489.964V262.257Z" fill="#8055A3"/>
</svg>
