<?xml version="1.0" encoding="utf-8"?>
<!-- Generator: Adobe Illustrator 25.4.1, SVG Export Plug-In . SVG Version: 6.00 Build 0)  -->
<svg version="1.1" id="Layer_1" xmlns="http://www.w3.org/2000/svg" xmlns:xlink="http://www.w3.org/1999/xlink" x="0px" y="0px"
	 viewBox="0 0 1532.3 925.6" style="enable-background:new 0 0 1532.3 925.6;" xml:space="preserve">
<style type="text/css">
	.st0{display:none;}
	.st1{display:inline;fill:#8055A3;}
	.st2{display:inline;fill:#292929;}
	.st3{fill:#8055A3;}
	.st4{fill:none;stroke:#FFFFFF;stroke-width:4;stroke-miterlimit:10;}
	.st5{fill:#FFFFFF;}
	.st6{fill:none;stroke:#FFFFFF;stroke-width:5;stroke-miterlimit:10;}
	.st7{fill:none;stroke:#FFFFFF;stroke-width:26;stroke-miterlimit:10;}
	.st8{fill:none;stroke:#FFFFFF;stroke-width:26;stroke-linecap:round;stroke-miterlimit:10;}
</style>
<g id="Logo_1.1">
	<polygon class="st3" points="384,384.6 365.2,389.4 337.7,396.5 317.4,401.7 317.4,401.7 289.9,408.9 289.8,408.9 269.5,414.1 
		242,421.2 242,421.2 221.7,426.4 194.2,433.5 174.3,438.6 157.9,442.8 157.6,442.9 154.3,429.9 149.1,409.6 149.3,409.5 
		166.1,405.2 166.1,405.2 193.6,398.1 193.6,398.1 213.5,393 241,385.9 261.3,380.6 261.4,380.6 288.9,373.6 309.2,368.3 
		336.7,361.2 357,356 375.5,351.2 378.3,362.1 	"/>
	<polygon class="st4" points="384.3,384.5 384,384.6 365.2,389.4 337.7,396.5 317.4,401.7 317.4,401.7 289.9,408.9 289.8,408.9 
		269.5,414.1 242,421.2 221.7,426.4 194.2,433.5 174.3,438.6 157.9,442.8 154.5,429.6 154.5,429.6 149.3,409.5 166.1,405.2 
		166.1,405.2 193.6,398.1 213.5,393 241,385.9 261.3,380.6 288.9,373.6 309.2,368.3 336.7,361.2 357,356 375.5,351.2 375.7,351.2 
		378.4,361.7 	"/>
	<polygon class="st5" points="193.6,398.1 174.3,438.6 157.9,442.8 157.6,442.9 154.3,429.9 154.5,429.6 154.5,429.6 166.1,405.2 
		166.1,405.2 166.1,405.2 	"/>
	<polygon class="st5" points="241,385.9 221.7,426.4 194.2,433.5 213.5,393 	"/>
	<polygon class="st5" points="288.9,373.6 269.5,414.1 269.5,414.1 242,421.2 261.3,380.6 261.4,380.6 	"/>
	<polygon class="st5" points="336.7,361.2 317.4,401.7 317.4,401.7 289.9,408.9 309.2,368.3 	"/>
	<polygon class="st5" points="378.4,361.7 378.3,362.1 365.2,389.4 337.7,396.5 357,356 375.5,351.2 375.7,351.2 	"/>
	<polygon class="st3" points="392,446.4 392,457.6 391.9,480.8 372.5,480.8 372.4,480.8 344,480.7 323,480.6 294.6,480.5 
		273.7,480.5 245.2,480.4 224.2,480.3 224.2,480.3 195.8,480.3 175.3,480.2 158.1,480.1 158.1,466.7 158.2,445.7 175.8,445.8 
		204.2,445.9 224.8,445.9 224.8,445.9 253.2,446 274.2,446 302.6,446.1 302.6,446.1 323.6,446.2 352,446.3 373,446.3 373,446.3 	"/>
	<polygon class="st4" points="392,446.4 392,457.6 391.9,480.8 372.5,480.8 372.4,480.8 344,480.7 323,480.6 294.6,480.5 
		273.7,480.5 245.2,480.4 224.2,480.3 224.2,480.3 195.8,480.3 175.3,480.2 158.1,480.1 158.1,466.7 158.2,445.7 175.8,445.8 
		204.2,445.9 224.8,445.9 224.8,445.9 253.2,446 274.2,446 302.6,446.1 302.6,446.1 323.6,446.2 352,446.3 373,446.3 373,446.3 	"/>
	<polygon class="st5" points="204.2,445.9 175.3,480.2 158.1,480.1 158.1,466.7 175.8,445.8 	"/>
	<polygon class="st5" points="253.2,446 224.2,480.3 224.2,480.3 195.8,480.3 224.8,445.9 224.8,445.9 	"/>
	<polygon class="st5" points="302.6,446.1 273.7,480.5 245.2,480.4 274.2,446 	"/>
	<polygon class="st5" points="352,446.3 323,480.6 294.6,480.5 323.6,446.2 	"/>
	<polygon class="st5" points="392,446.4 392,457.6 372.5,480.8 372.4,480.8 344,480.7 373,446.3 373,446.3 	"/>
	
		<rect x="210.9" y="393.1" transform="matrix(2.792512e-03 -1 1 2.792512e-03 -235.868 783.5735)" class="st4" width="128.2" height="233.8"/>
	<polygon class="st3" points="253.2,527.5 253.1,556.7 278.5,542.2 303.8,527.7 278.6,513 253.3,498.3 	"/>
	<path class="st5" d="M536.6,486.3c-1.2,12.8-6,22.9-14.2,30c-8.3,7.2-19.3,10.8-33,10.8c-8.9,0.2-17.7-2.2-25.3-6.8
		c-7.4-4.7-13.3-11.4-16.9-19.4c-4.2-9.2-6.3-19.1-6.2-29.2v-11.2c-0.2-10.3,1.9-20.6,6-30c3.7-8.2,9.7-15.2,17.3-20
		c7.8-4.8,16.9-7.2,26.1-7c13.3,0,24,3.6,32.1,10.8c8.1,7.2,12.8,17.4,14.1,30.5h-20.8c-1-8.7-3.5-14.9-7.6-18.7
		c-4.1-3.8-10-5.7-17.9-5.7c-9.1,0-16.1,3.3-20.9,10c-4.9,6.6-7.4,16.4-7.5,29.2v10.7c0,13,2.3,22.9,7,29.8
		c4.7,6.9,11.5,10.3,20.5,10.3c8.2,0,14.4-1.8,18.5-5.5c4.1-3.7,6.7-9.8,7.9-18.4L536.6,486.3z"/>
	<path class="st5" d="M549.6,480c-0.1-8.2,1.7-16.3,5.2-23.7c3.2-6.7,8.3-12.4,14.6-16.2c6.6-3.8,14-5.8,21.6-5.6
		c12.1,0,21.8,3.9,29.4,11.6c7.5,7.8,11.6,18,12.2,30.8l0.1,4.7c0.1,8.2-1.6,16.3-5.1,23.6c-3.2,6.7-8.3,12.3-14.6,16.1
		c-6.6,3.9-14.2,5.9-21.8,5.7c-12.6,0-22.7-4.2-30.3-12.6c-7.6-8.4-11.4-19.6-11.4-33.6L549.6,480z M569.7,481.7
		c0,9.2,1.9,16.4,5.7,21.6c3.6,5.1,9.6,8.1,15.9,7.8c6.3,0.2,12.3-2.8,15.8-7.9c3.8-5.3,5.7-13,5.7-23.2c0-9-1.9-16.2-5.8-21.5
		c-6.5-8.7-18.8-10.5-27.5-4.1c-1.5,1.1-2.8,2.4-4,3.9C571.6,463.6,569.7,471.3,569.7,481.7z"/>
	<path class="st5" d="M703.9,516.8c-5.9,6.9-14.3,10.4-25.1,10.4c-9.7,0-17.1-2.8-22-8.5c-4.9-5.7-7.4-13.9-7.5-24.6v-57.9h20.1
		v57.7c0,11.4,4.7,17,14.1,17c9.7,0,16.3-3.5,19.8-10.5v-64.2h20.1v89.4h-18.9L703.9,516.8z"/>
	<path class="st5" d="M780.5,511.1c4.6,0.2,9-1.4,12.5-4.4c3.2-2.7,5.1-6.6,5.3-10.8h18.9c-0.2,5.6-2,11-5.2,15.6
		c-3.3,4.9-7.9,8.8-13.2,11.5c-5.6,2.8-11.8,4.3-18,4.2c-12.5,0-22.4-4-29.8-12.1s-11-19.3-11-33.6v-2.1c0-13.6,3.6-24.5,10.9-32.7
		c7.3-8.2,17.2-12.3,29.8-12.3c10.6,0,19.3,3.1,26,9.3c6.7,6.2,10.2,14.3,10.5,24.3h-18.9c-0.1-4.7-1.9-9.3-5.2-12.6
		c-3.3-3.3-7.8-5.1-12.5-5c-5.9-0.3-11.5,2.4-15,7.1c-3.5,4.7-5.3,11.8-5.4,21.4v3.2c0,9.7,1.7,17,5.2,21.7S773.8,511,780.5,511.1z"
		/>
	<path class="st5" d="M852.1,445.8c6.1-7.4,15.3-11.6,24.9-11.4c19.1,0,28.7,10.9,29,32.6v58.4h-20.1v-57.7c0-6.2-1.3-10.5-4-13.1
		c-2.7-2.5-6.6-3.8-11.8-3.8c-7.6-0.3-14.6,3.9-18,10.7v63.9H832v-127h20.1V445.8z"/>
	<path class="st3" d="M1020.4,490.8l16.2-85.6h24.7l-26.7,120.3h-25L990.1,445l-19.6,80.5h-25l-26.7-120.3h24.7l16.2,85.4l19.8-85.4
		h21L1020.4,490.8z"/>
	<path class="st3" d="M1122.2,525.5c-1.2-2.5-2-5.2-2.4-8c-5.7,6.4-14,10-22.6,9.7c-8,0.3-15.7-2.4-21.8-7.6
		c-5.6-4.8-8.8-11.8-8.6-19.2c0-9.5,3.5-16.8,10.5-21.8c7-5.1,17.2-7.6,30.5-7.7h11v-5.1c0.2-3.6-1-7.1-3.2-9.9
		c-2.2-2.5-5.5-3.7-10-3.7c-3.4-0.2-6.8,0.8-9.5,2.9c-2.3,2-3.6,4.9-3.4,7.9h-23.9c0-5.2,1.7-10.2,4.9-14.4
		c3.5-4.6,8.2-8.2,13.5-10.4c6.2-2.6,12.9-3.9,19.7-3.7c11,0,19.8,2.8,26.2,8.3c6.5,5.5,9.7,13.3,9.7,23.3v38.8
		c0,8.5,1.2,14.9,3.6,19.3v1.4H1122.2z M1102.4,508.9c3.4,0,6.7-0.8,9.7-2.4c2.8-1.4,5.1-3.6,6.6-6.3v-15.4h-8.9
		c-11.9,0-18.3,4.1-19.1,12.4v1.4c-0.1,2.8,1.1,5.5,3.1,7.4C1096.3,508,1099.3,509.1,1102.4,508.9z"/>
	<path class="st3" d="M1189.7,414.1v22h15.3v17.5h-15.3v44.6c0,3.2,0.6,5.7,1.9,7.1c1.3,1.4,3.7,2.2,7.3,2.2c2.4,0,4.7-0.2,7-0.6
		V525c-4.7,1.4-9.6,2.2-14.4,2.1c-16.8,0-25.3-8.5-25.6-25.4v-48.2h-13v-17.5h13v-22H1189.7z"/>
	<path class="st3" d="M1255.5,507.9c3.9,0.2,7.7-1.1,10.7-3.6c2.8-2.4,4.3-6,4.3-9.7h22.4c0,5.9-1.7,11.7-5,16.6
		c-3.3,5.1-7.9,9.1-13.3,11.7c-5.8,2.8-12.2,4.2-18.7,4.2c-12.8,0-22.8-4.1-30.2-12.2c-7.4-8.1-11.1-19.3-11.1-33.6v-1.6
		c0-13.8,3.7-24.8,11-33c7.3-8.2,17.4-12.3,30.2-12.3c11.2,0,20.1,3.2,26.9,9.5c6.8,6.4,10.2,14.8,10.3,25.4h-22.4
		c0.1-4.2-1.5-8.3-4.3-11.4c-6.4-6.1-16.5-5.8-22.6,0.7c-0.3,0.3-0.6,0.7-0.9,1c-2.8,4.1-4.3,10.6-4.3,19.7v2.5
		c0,9.2,1.4,15.8,4.2,19.9C1245.5,505.8,1249.8,507.9,1255.5,507.9z"/>
	<path class="st3" d="M1329.9,445.8c5.8-7.3,14.6-11.5,23.9-11.4c19.4,0,29.2,11.3,29.5,33.8v57.3h-23.9v-56.6
		c0-5.1-1.1-8.9-3.2-11.4c-2.1-2.5-5.9-3.7-11-3.7c-7,0-12.1,2.7-15.2,8.1v63.5H1306v-127h23.9L1329.9,445.8z"/>
</g>
</svg>
