<?xml version="1.0" encoding="utf-8"?>
<!-- Generator: Adobe Illustrator 25.4.1, SVG Export Plug-In . SVG Version: 6.00 Build 0)  -->
<svg version="1.1" id="Layer_1" xmlns="http://www.w3.org/2000/svg" xmlns:xlink="http://www.w3.org/1999/xlink" x="0px" y="0px"
	 viewBox="0 0 1532.3 925.6" style="enable-background:new 0 0 1532.3 925.6;" xml:space="preserve">
<style type="text/css">
	.st0{display:none;}
	.st1{display:inline;fill:#8055A3;}
	.st2{display:inline;fill:#292929;}
	.st3{fill:#8055A3;}
	.st4{fill:none;stroke:#FFFFFF;stroke-width:4;stroke-miterlimit:10;}
	.st5{fill:#FFFFFF;}
	.st6{fill:none;stroke:#FFFFFF;stroke-width:5;stroke-miterlimit:10;}
	.st7{fill:none;stroke:#FFFFFF;stroke-width:26;stroke-miterlimit:10;}
	.st8{fill:none;stroke:#FFFFFF;stroke-width:26;stroke-linecap:round;stroke-miterlimit:10;}
</style>
<g>
	<circle class="st7" cx="766.1" cy="462.8" r="250.4"/>
	<path class="st8" d="M867.9,520.4c-33.2,29.2-66.4,58.5-99.5,87.7c-32.8-30.2-65.6-60.4-98.4-90.7c-8.1-6.8-13.8-13.5-17.7-18.7
		c0,0-12.1-16.1-17.5-33.9c-2-6.7-2.8-12.8-2.8-13.2c-0.3-2.7-0.5-5.6-0.5-8.8c0-40.8,33.1-73.8,73.8-73.8
		c26.7,0,50.2,14.2,63.1,35.5c12.9-21.3,36.4-35.5,63.1-35.5c40.8,0,73.8,33.1,73.8,73.8c0,8.8-1.5,15.4-3.5,22.4
		C894.4,492.8,878,511,867.9,520.4z"/>
</g>
</svg>
